<svg version="1.1" id="Layer_1" xmlns="http://www.w3.org/2000/svg" xmlns:xlink="http://www.w3.org/1999/xlink" x="0px" y="0px"
	 width="100%" viewBox="0 0 128 128" enable-background="new 0 0 128 128" xml:space="preserve">

<path fill="#FFFFFF" opacity="1.000000" stroke="none" 
	d="
M76.000000,117.000450 
	C56.673347,117.000458 37.846695,117.008461 19.020050,116.997314 
	C8.569675,116.991119 3.000150,111.381554 3.000076,100.905930 
	C2.999902,76.414627 3.390728,51.913296 2.762977,27.438091 
	C2.573580,20.053736 10.090340,13.117799 16.684002,13.038347 
	C27.511917,12.907875 38.348167,12.793740 49.169804,13.085060 
	C55.119690,13.245230 60.315041,15.726207 64.059021,20.599571 
	C66.164398,23.340040 68.781960,24.137457 72.245674,24.084356 
	C85.737709,23.877520 99.234871,23.972538 112.729980,24.009808 
	C121.876991,24.035069 126.996948,29.243294 126.998680,38.420357 
	C127.002708,59.746120 126.518295,81.088478 127.252068,102.388962 
	C127.521652,110.214722 119.217621,117.126335 112.486710,117.042084 
	C100.492844,116.891937 88.495743,117.000237 76.000000,117.000450 
M40.404297,30.999985 
	C33.992607,30.999985 27.580919,30.999985 21.268764,30.999985 
	C21.268764,54.048271 21.268764,76.294716 21.268764,98.693817 
	C50.563679,98.693817 79.588638,98.693817 108.644058,98.693817 
	C108.644058,79.684952 108.644058,60.984528 108.644058,41.999981 
	C94.824799,41.999981 81.355278,41.804260 67.896011,42.090660 
	C62.030052,42.215481 56.875309,41.124969 53.675545,36.042576 
	C50.623127,31.194223 46.348698,30.526947 40.404297,30.999985 
z"/>

<path fill="#FFFFFF" opacity="1.000000" stroke="none" 
	d="
M44.750088,79.249756 
	C41.248566,75.903236 37.997093,72.806747 34.997799,69.950417 
	C35.158501,69.025917 35.103294,68.611847 35.284557,68.405273 
	C46.518284,55.603157 46.520069,55.604725 59.856647,68.178238 
	C66.262726,61.591370 72.790749,55.072559 79.072929,48.324863 
	C81.602318,45.608059 83.402565,45.495628 85.908981,48.302067 
	C88.781380,51.518288 92.054291,54.376816 96.525795,58.725693 
	C93.987656,60.629406 91.534630,62.080250 89.558929,64.017807 
	C80.524452,72.877884 71.547447,81.800140 62.724377,90.869888 
	C60.267933,93.395004 58.615170,93.420158 56.257790,90.843483 
	C52.664806,86.916260 48.767952,83.267052 44.750088,79.249756 
z"/>
</svg>